<?xml version="1.0" encoding="utf-8"?>
<!-- Generator: Adobe Illustrator 17.0.0, SVG Export Plug-In . SVG Version: 6.00 Build 0)  -->
<!DOCTYPE svg PUBLIC "-//W3C//DTD SVG 1.1//EN" "http://www.w3.org/Graphics/SVG/1.1/DTD/svg11.dtd">
<svg version="1.1" id="Layer_1" xmlns="http://www.w3.org/2000/svg" xmlns:xlink="http://www.w3.org/1999/xlink" x="0px" y="0px"
	 width="900px" height="900px" viewBox="93.5 105 900 900" enable-background="new 93.5 105 900 900" xml:space="preserve">
<g id="_x23_80bc76ff">
	<path fill="#80BC76" d="M384.38,139.81c96.8-37.63,206.95-39.34,304.97-5.09c73.17,25.31,139.31,70.35,190.02,128.81
		c44.05,50.63,76.54,111.32,93.84,176.18c25.46,94.57,18.59,197.56-19.77,287.72c-21.38,50.56-52.22,97.11-90.48,136.48
		c-5.53-8.16-10.85-16.46-16.34-24.64c55.82-58.92,93.61-134.65,107.1-214.69c10.32-60.83,7.01-123.98-9.93-183.33
		c-20.33-71.85-60.68-137.82-115.08-188.94c-59.25-56.09-135.33-94.2-215.84-107.59c-70.82-11.93-144.78-5.31-212.16,19.64
		C395.13,156.27,389.85,147.97,384.38,139.81z"/>
	<path fill="#80BC76" d="M515.11,346.36c9.94,22.84,18.8,46.15,28.64,69.04l0.12,0.27c-18.73,45.25-37.27,90.56-55.93,135.83
		c-18.92,0.01-37.83-0.03-56.74,0.02C459.15,483.12,487.1,414.73,515.11,346.36z"/>
</g>
<g id="_x23_2dbcdaff">
	<path fill="#2DBCDA" d="M210.37,260.93c5.46,8.38,10.79,16.84,16.23,25.24c-40.98,48.25-70.85,105.91-86.23,167.34
		c-19.57,77.54-16.17,160.74,10.03,236.33c24.83,72.47,70.34,137.62,129.55,186.19c49.89,41.14,109.49,70.45,172.61,84.56
		c66.62,15.06,136.89,13.2,202.68-5.09c5.4,8.38,10.78,16.79,16.13,25.21c-46.96,14.13-96.3,20.29-145.27,18.33
		c-60.33-2.27-120.16-17.09-174.54-43.32c-64.3-30.89-120.94-77.5-163.67-134.61c-46.16-61.32-75.99-134.82-85.32-211.01
		c-5.96-48.29-4.14-97.57,5.72-145.23C123.69,389.5,159.45,318.54,210.37,260.93z"/>
	<path fill="#2DBCDA" d="M421.49,575.25c18.9-0.01,37.81,0.01,56.71-0.01c-8.02,19.8-16.18,39.54-24.23,59.33l-1.25,0.42
		c0.45,0.41,0.91,0.82,1.38,1.24l0.66-1.04c18.42-11.03,36.8-22.14,55.21-33.19c11.1-6.87,22.56-13.19,33.4-20.44
		c-0.19,23.75,0.21,47.52-0.2,71.26l-0.11,0.86c-9.61,4.92-18.58,11.05-27.91,16.51c-33.46,20.2-66.87,40.51-100.34,60.7
		c11.56-27.87,22.84-55.86,34.35-83.75c1.31-3.04,2.17-6.35,4.35-8.92c-0.6-0.61-1.2-1.21-1.81-1.8
		c-16.58,10.65-33.71,20.43-50.52,30.71c-7.59,4.32-14.76,9.38-22.6,13.26C392.74,645.28,407.2,610.3,421.49,575.25z"/>
	<path fill="#2DBCDA" d="M634.69,637.03c25.1,14.73,49.59,30.52,74.83,45.01c0.96,0.88,1.2,2.32,1.77,3.49
		c11.92,29.15,23.82,58.31,35.77,87.45c0.54,1.34,0.99,2.72,1.35,4.14c-23.78-14.47-47.62-28.86-71.44-43.28
		c-1.52-1.03-3.42-1.69-4.56-3.14c-0.57-1.8-1.04-3.59-1.72-5.33c-6.95-16.78-13.82-33.6-20.72-50.4
		C644.94,662.3,639.25,649.88,634.69,637.03z"/>
</g>
<g id="_x23_6ead44ff">
	<path fill="#6EAD44" d="M543.58,276.22c4.93,10.36,8.77,21.23,13.29,31.79c5.22,12.82,10.53,25.61,15.69,38.45
		c-10,22.8-18.76,46.16-28.81,68.94c-9.84-22.89-18.7-46.2-28.64-69.04l-0.2-0.42C524.61,322.76,533.84,299.38,543.58,276.22z"/>
</g>
<g id="_x23_bad754ff">
	<path fill="#BAD754" d="M543.75,415.4c10.05-22.78,18.81-46.14,28.81-68.94c27.58,68.45,55.9,136.62,83.61,205.02
		c-18.88,0.06-37.75-0.02-56.63,0.04c-18.61-45.26-37.16-90.55-55.67-135.85L543.75,415.4z"/>
</g>
<g id="_x23_1c8faeff">
	<path fill="#1C8FAE" d="M609.21,575.23c18.89,0.03,37.78,0.03,56.67,0c14.64,35.57,29.26,71.15,43.64,106.81
		c-25.24-14.49-49.73-30.28-74.83-45.01C625.98,616.53,617.75,595.81,609.21,575.23z"/>
	<path fill="#1C8FAE" d="M401.18,667.13c16.81-10.28,33.94-20.06,50.52-30.71c0.61,0.59,1.21,1.19,1.81,1.8
		c-2.18,2.57-3.04,5.88-4.35,8.92c-11.51,27.89-22.79,55.88-34.35,83.75c-8.84,5.85-18.22,11.09-27.25,16.73
		c-16.25,9.71-32.32,19.73-48.64,29.31c12.25-30.89,25.16-61.54,37.6-92.37c0.62-1.41,1.08-2.99,2.06-4.17
		C386.42,676.51,393.59,671.45,401.18,667.13z"/>
</g>
<g id="_x23_65cdf3ff">
	<path fill="#65CDF3" d="M543.37,581.56c30.51,18.37,60.89,36.96,91.32,55.47c4.56,12.85,10.25,25.27,15.28,37.94
		c6.9,16.8,13.77,33.62,20.72,50.4c0.68,1.74,1.15,3.53,1.72,5.33c-33.12-19.84-66.07-39.96-99.12-59.93
		c-10.08-5.91-19.85-12.36-30.12-17.95C543.58,629.08,543.18,605.31,543.37,581.56z"/>
</g>
</svg>
